<?xml version="1.0" standalone="no"?>
<!DOCTYPE svg PUBLIC "-//W3C//DTD SVG 20010904//EN"
 "http://www.w3.org/TR/2001/REC-SVG-20010904/DTD/svg10.dtd">
<svg version="1.0" xmlns="http://www.w3.org/2000/svg"
 width="128.000000pt" height="128.000000pt" viewBox="0 0 128.000000 128.000000"
 preserveAspectRatio="xMidYMid meet">
<metadata>
Created by potrace 1.16, written by Peter Selinger 2001-2019
</metadata>
<g transform="translate(0.000000,128.000000) scale(0.100000,-0.100000)"
fill="#000000" stroke="none">
<path d="M570 779 c0 -5 -18 -9 -40 -9 -71 0 -110 -63 -64 -101 8 -7 18 -8 22
-4 4 4 1 10 -5 12 -15 5 -18 39 -5 47 5 3 27 9 49 14 l41 9 -13 -36 c-7 -20
-25 -64 -39 -98 -43 -104 -32 -139 38 -126 36 7 117 82 180 167 29 39 65 83
80 98 16 16 23 29 16 33 -21 13 -68 -30 -121 -112 -58 -91 -129 -163 -162
-163 -16 0 -18 5 -14 33 2 17 17 69 33 114 25 70 32 83 52 83 32 0 27 14 -13
32 -19 8 -35 12 -35 7z"/>
</g>
</svg>
